<svg id="_x31__px" enable-background="new 0 0 24 24" height="512" viewBox="0 0 24 24" width="512" xmlns="http://www.w3.org/2000/svg"><path d="m13.5 24h-3c-.276 0-.5-.224-.5-.5v-3c0-.276.224-.5.5-.5h3c.276 0 .5.224.5.5v3c0 .276-.224.5-.5.5zm-2.5-1h2v-2h-2z"/><path d="m10.5 22.5h-5c-1.379 0-2.5-1.122-2.5-2.5v-9.5c0-.276.224-.5.5-.5s.5.224.5.5v9.5c0 .827.673 1.5 1.5 1.5h5c.276 0 .5.224.5.5s-.224.5-.5.5z"/><path d="m18.5 22.5h-5c-.276 0-.5-.224-.5-.5s.224-.5.5-.5h5c.827 0 1.5-.673 1.5-1.5v-9.5c0-.276.224-.5.5-.5s.5.224.5.5v9.5c0 1.378-1.121 2.5-2.5 2.5z"/><path d="m20 5c-1.103 0-2-.897-2-2s.897-2 2-2 2 .897 2 2-.897 2-2 2zm0-3c-.552 0-1 .449-1 1s.448 1 1 1 1-.449 1-1-.448-1-1-1z"/><path d="m23.5 10c-.276 0-.5-.224-.5-.5v-1c0-.827-.673-1.5-1.5-1.5h-3c-.276 0-.5-.224-.5-.5s.224-.5.5-.5h3c1.379 0 2.5 1.122 2.5 2.5v1c0 .276-.224.5-.5.5z"/><path d="m4 5c-1.103 0-2-.897-2-2s.897-2 2-2 2 .897 2 2-.897 2-2 2zm0-3c-.552 0-1 .449-1 1s.448 1 1 1 1-.449 1-1-.448-1-1-1z"/><path d="m.5 10c-.276 0-.5-.224-.5-.5v-1c0-1.378 1.121-2.5 2.5-2.5h3c.276 0 .5.224.5.5s-.224.5-.5.5h-3c-.827 0-1.5.673-1.5 1.5v1c0 .276-.224.5-.5.5z"/><path d="m12 6c-1.654 0-3-1.346-3-3s1.346-3 3-3 3 1.346 3 3-1.346 3-3 3zm0-5c-1.103 0-2 .897-2 2s.897 2 2 2 2-.897 2-2-.897-2-2-2z"/><path d="m17 13c-.276 0-.5-.224-.5-.5v-2c0-.827-.673-1.5-1.5-1.5h-6c-.827 0-1.5.673-1.5 1.5v2c0 .276-.224.5-.5.5s-.5-.224-.5-.5v-2c0-1.378 1.121-2.5 2.5-2.5h6c1.379 0 2.5 1.122 2.5 2.5v2c0 .276-.224.5-.5.5z"/><path d="m12 21c-.276 0-.5-.224-.5-.5v-7c0-.276.224-.5.5-.5s.5.224.5.5v7c0 .276-.224.5-.5.5z"/></svg>